Roman_opsz10_wght700.ufo
<glyph name="parenleft" format="2">
  <advance width="447"/>
  <unicode hex="0028"/>
  <outline>
    <contour>
      <point x="108" y="251" type="curve" smooth="yes"/>
      <point x="108" y="126"/>
      <point x="141" y="16"/>
      <point x="188" y="-67" type="curve" smooth="yes"/>
      <point x="254" y="-182"/>
      <point x="345" y="-249"/>
      <point x="364" y="-249" type="curve" smooth="yes"/>
      <point x="372" y="-249"/>
      <point x="382" y="-246"/>
      <point x="382" y="-235" type="curve" smooth="yes"/>
      <point x="382" y="-230"/>
      <point x="380" y="-226"/>
      <point x="379" y="-225" type="curve" smooth="yes"/>
      <point x="277" y="-133"/>
      <point x="205.0" y="19.45954"/>
      <point x="205" y="250" type="curve" smooth="yes"/>
      <point x="205" y="447"/>
      <point x="256" y="604"/>
      <point x="366" y="715" type="curve" smooth="yes"/>
      <point x="381" y="730"/>
      <point x="382" y="731"/>
      <point x="382" y="736" type="curve" smooth="yes"/>
      <point x="382" y="747"/>
      <point x="372" y="750"/>
      <point x="364" y="750" type="curve" smooth="yes"/>
      <point x="347" y="750"/>
      <point x="305" y="713"/>
      <point x="287" y="696" type="curve" smooth="yes"/>
      <point x="131" y="541"/>
      <point x="108" y="357"/>
    </contour>
  </outline>
</glyph>
<glyph name="zero" format="2">
  <advance width="575"/>
  <unicode hex="0030"/>
  <outline>
    <contour>
      <point x="287" y="-11" type="curve" smooth="yes"/>
      <point x="364.3544" y="-11.0"/>
      <point x="416.9844708082" y="12.893259302999997"/>
      <point x="452.79214543244433" y="48.625981795339236" type="curve" smooth="yes"/>
      <point x="528.0814725278" y="123.75771430700001"/>
      <point x="529.0" y="251.23100000000005"/>
      <point x="529" y="319" type="curve" smooth="yes"/>
      <point x="529.0" y="385.13653999999997"/>
      <point x="528.5351214876" y="517.2858287608"/>
      <point x="451.8510957722283" y="594.6847852317396" type="curve" smooth="yes"/>
      <point x="416.065517024" y="630.8039955364001"/>
      <point x="363.68138" y="655.0000000000001"/>
      <point x="287" y="655" type="curve"/>
      <point x="210.31862" y="655.0"/>
      <point x="157.934482976" y="630.9052340488"/>
      <point x="122.14890422777175" y="594.8918645593133" type="curve" smooth="yes"/>
      <point x="45.46487851239996" y="517.7197117359999"/>
      <point x="44.99999999999997" y="385.81835999999987"/>
      <point x="45" y="319" type="curve"/>
      <point x="45.0" y="251.90868999999998"/>
      <point x="45.4592637361" y="124.19456683479996"/>
      <point x="120.76377868320856" y="48.83718470269204" type="curve" smooth="yes"/>
      <point x="156.578676664" y="12.997143039100003"/>
      <point x="209.32329000000001" y="-11.000000000000004"/>
    </contour>
    <contour>
      <point x="287" y="25" type="curve" smooth="yes"/>
      <point x="251" y="25"/>
      <point x="195" y="47"/>
      <point x="182" y="120" type="curve" smooth="yes"/>
      <point x="173" y="172"/>
      <point x="173" y="276"/>
      <point x="173" y="331" type="curve" smooth="yes"/>
      <point x="173" y="403"/>
      <point x="173" y="468"/>
      <point x="181" y="520" type="curve" smooth="yes"/>
      <point x="193" y="609"/>
      <point x="263" y="619"/>
      <point x="287" y="619" type="curve" smooth="yes"/>
      <point x="324" y="619"/>
      <point x="365" y="600"/>
      <point x="384" y="556" type="curve" smooth="yes"/>
      <point x="401" y="519"/>
      <point x="401" y="413"/>
      <point x="401" y="331" type="curve" smooth="yes"/>
      <point x="401" y="275"/>
      <point x="401" y="184"/>
      <point x="394" y="132" type="curve" smooth="yes"/>
      <point x="380" y="39"/>
      <point x="317" y="25"/>
    </contour>
  </outline>
</glyph>
<glyph name="one" format="2">
  <advance width="575"/>
  <unicode hex="0031"/>
  <outline>
    <contour>
      <point x="354" y="623" type="line" smooth="yes"/>
      <point x="354" y="645"/>
      <point x="354" y="655"/>
      <point x="328" y="655" type="curve" smooth="yes"/>
      <point x="317" y="655"/>
      <point x="315" y="655"/>
      <point x="306" y="648" type="curve" smooth="yes"/>
      <point x="229" y="591"/>
      <point x="126" y="591"/>
      <point x="105" y="591" type="curve" smooth="yes"/>
      <point x="85" y="591" type="line"/>
      <point x="85" y="544" type="line"/>
      <point x="105" y="544" type="line" smooth="yes"/>
      <point x="121" y="544"/>
      <point x="176" y="545"/>
      <point x="235" y="564" type="curve"/>
      <point x="235" y="47" type="line"/>
      <point x="96" y="47" type="line"/>
      <point x="96" y="0" type="line"/>
      <point x="140" y="3"/>
      <point x="246" y="3"/>
      <point x="295" y="3" type="curve" smooth="yes"/>
      <point x="344" y="3"/>
      <point x="450" y="3"/>
      <point x="494" y="0" type="curve"/>
      <point x="494" y="47" type="line"/>
      <point x="354" y="47" type="line"/>
    </contour>
  </outline>
</glyph>
<glyph name="eight" format="2">
  <advance width="575"/>
  <unicode hex="0038"/>
  <outline>
    <contour>
      <point x="199" y="479" type="line" smooth="yes"/>
      <point x="183" y="488"/>
      <point x="155" y="505"/>
      <point x="155" y="539" type="curve" smooth="yes"/>
      <point x="155" y="609"/>
      <point x="245" y="616"/>
      <point x="285" y="616" type="curve" smooth="yes"/>
      <point x="369" y="616"/>
      <point x="419" y="575"/>
      <point x="419" y="507" type="curve" smooth="yes"/>
      <point x="419" y="458"/>
      <point x="393" y="424"/>
      <point x="349" y="395" type="curve"/>
    </contour>
    <contour>
      <point x="393" y="370" type="curve"/>
      <point x="463" y="406"/>
      <point x="494" y="450"/>
      <point x="494" y="508" type="curve" smooth="yes"/>
      <point x="494" y="610"/>
      <point x="403" y="655"/>
      <point x="289" y="655" type="curve" smooth="yes"/>
      <point x="150" y="655"/>
      <point x="80" y="576"/>
      <point x="80" y="480" type="curve" smooth="yes"/>
      <point x="80" y="436"/>
      <point x="98" y="373"/>
      <point x="176" y="329" type="curve"/>
      <point x="92" y="292"/>
      <point x="48" y="235"/>
      <point x="48" y="161" type="curve" smooth="yes"/>
      <point x="48" y="40"/>
      <point x="156" y="-11"/>
      <point x="285" y="-11" type="curve" smooth="yes"/>
      <point x="445" y="-11"/>
      <point x="526" y="77"/>
      <point x="526" y="187" type="curve" smooth="yes"/>
      <point x="526" y="295"/>
      <point x="442" y="342"/>
    </contour>
    <contour>
      <point x="222" y="302" type="curve"/>
      <point x="257" y="284"/>
      <point x="304" y="257"/>
      <point x="359" y="226" type="curve" smooth="yes"/>
      <point x="403" y="201"/>
      <point x="440" y="180"/>
      <point x="440" y="132" type="curve" smooth="yes"/>
      <point x="440" y="48"/>
      <point x="346" y="32"/>
      <point x="289" y="32" type="curve" smooth="yes"/>
      <point x="191" y="32"/>
      <point x="134" y="83"/>
      <point x="134" y="161" type="curve" smooth="yes"/>
      <point x="134" y="239"/>
      <point x="187" y="282"/>
    </contour>
  </outline>
</glyph>
<glyph name="B" format="2">
  <advance width="818"/>
  <unicode hex="0042"/>
  <outline>
    <contour>
      <point x="753" y="186" type="curve" smooth="yes"/>
      <point x="753" y="282"/>
      <point x="667" y="349"/>
      <point x="548" y="358" type="curve"/>
      <point x="656" y="377"/>
      <point x="721" y="437"/>
      <point x="721" y="514" type="curve" smooth="yes"/>
      <point x="721" y="606"/>
      <point x="634" y="686"/>
      <point x="473" y="686" type="curve" smooth="yes"/>
      <point x="39" y="686" type="line"/>
      <point x="39" y="639" type="line"/>
      <point x="147" y="639" type="line"/>
      <point x="147" y="639" type="line"/>
      <point x="147" y="47" type="line"/>
      <point x="147" y="47" type="line"/>
      <point x="39" y="47" type="line"/>
      <point x="39" y="0" type="line"/>
      <point x="503" y="0" type="line" smooth="yes"/>
      <point x="669" y="0"/>
      <point x="753" y="88"/>
    </contour>
    <contour>
      <point x="278" y="375" type="line"/>
      <point x="278" y="639" type="line"/>
      <point x="278" y="639" type="line"/>
      <point x="460" y="639" type="line" smooth="yes"/>
      <point x="561" y="639"/>
      <point x="579" y="560"/>
      <point x="579" y="514" type="curve" smooth="yes"/>
      <point x="579" y="437"/>
      <point x="531" y="375"/>
      <point x="434" y="375" type="curve" smooth="yes"/>
    </contour>
    <contour>
      <point x="462" y="47" type="curve" smooth="yes"/>
      <point x="278" y="47" type="line"/>
      <point x="278" y="47" type="line"/>
      <point x="278" y="339" type="line"/>
      <point x="472" y="339" type="line" smooth="yes"/>
      <point x="579" y="339"/>
      <point x="606" y="253"/>
      <point x="606" y="187" type="curve" smooth="yes"/>
      <point x="606" y="175"/>
      <point x="606" y="47"/>
    </contour>
  </outline>
</glyph>
<glyph name="G" format="2">
  <advance width="904"/>
  <unicode hex="0047"/>
  <outline>
    <contour>
      <point x="653" y="53" type="curve"/>
      <point x="684" y="26"/>
      <point x="744" y="0"/>
      <point x="751" y="0" type="curve" smooth="yes"/>
      <point x="765" y="0"/>
      <point x="765" y="13"/>
      <point x="765" y="28" type="curve" smooth="yes"/>
      <point x="765" y="229" type="line"/>
      <point x="845" y="229" type="line"/>
      <point x="845" y="276" type="line"/>
      <point x="810" y="273"/>
      <point x="723" y="273"/>
      <point x="684" y="273" type="curve" smooth="yes"/>
      <point x="626" y="273"/>
      <point x="533" y="273"/>
      <point x="479" y="276" type="curve"/>
      <point x="479" y="229" type="line"/>
      <point x="623" y="229" type="line"/>
      <point x="623" y="128" type="line" smooth="yes"/>
      <point x="623" y="109"/>
      <point x="623" y="80"/>
      <point x="584" y="57" type="curve" smooth="yes"/>
      <point x="558" y="42"/>
      <point x="526" y="36"/>
      <point x="494" y="36" type="curve" smooth="yes"/>
      <point x="408" y="36"/>
      <point x="322" y="65"/>
      <point x="273" y="127" type="curve" smooth="yes"/>
      <point x="230" y="182"/>
      <point x="217" y="253"/>
      <point x="217" y="344" type="curve" smooth="yes"/>
      <point x="217" y="456"/>
      <point x="237" y="514"/>
      <point x="274" y="563" type="curve" smooth="yes"/>
      <point x="314" y="613"/>
      <point x="391" y="650"/>
      <point x="487" y="650" type="curve" smooth="yes"/>
      <point x="594" y="650"/>
      <point x="689" y="574"/>
      <point x="711" y="447" type="curve" smooth="yes"/>
      <point x="714" y="428"/>
      <point x="715" y="426"/>
      <point x="738" y="426" type="curve" smooth="yes"/>
      <point x="764" y="426"/>
      <point x="765" y="428"/>
      <point x="765" y="454" type="curve" smooth="yes"/>
      <point x="765" y="669" type="line" smooth="yes"/>
      <point x="765" y="688"/>
      <point x="765" y="697"/>
      <point x="747" y="697" type="curve" smooth="yes"/>
      <point x="738" y="697"/>
      <point x="736" y="695"/>
      <point x="728" y="688" type="curve" smooth="yes"/>
      <point x="662" y="629" type="line"/>
      <point x="589" y="687"/>
      <point x="517" y="697"/>
      <point x="465" y="697" type="curve" smooth="yes"/>
      <point x="219" y="697"/>
      <point x="64" y="550"/>
      <point x="64" y="343" type="curve" smooth="yes"/>
      <point x="64" y="144"/>
      <point x="209" y="-11"/>
      <point x="467" y="-11" type="curve" smooth="yes"/>
      <point x="500" y="-11"/>
      <point x="603" y="-9"/>
    </contour>
  </outline>
</glyph>
<glyph name="H" format="2">
  <advance width="900"/>
  <unicode hex="0048"/>
  <outline>
    <contour>
      <point x="39" y="0" type="line"/>
      <point x="77" y="3"/>
      <point x="175" y="3"/>
      <point x="218" y="3" type="curve" smooth="yes"/>
      <point x="261" y="3"/>
      <point x="359" y="3"/>
      <point x="397" y="0" type="curve"/>
      <point x="397" y="47" type="line"/>
      <point x="289" y="47" type="line"/>
      <point x="289" y="47" type="line"/>
      <point x="289" y="333" type="line"/>
      <point x="610" y="333" type="line"/>
      <point x="610" y="47" type="line"/>
      <point x="610" y="47" type="line"/>
      <point x="502" y="47" type="line"/>
      <point x="502" y="0" type="line"/>
      <point x="540" y="3"/>
      <point x="638" y="3"/>
      <point x="681" y="3" type="curve" smooth="yes"/>
      <point x="724" y="3"/>
      <point x="822" y="3"/>
      <point x="860" y="0" type="curve"/>
      <point x="860" y="47" type="line"/>
      <point x="752" y="47" type="line"/>
      <point x="752" y="47" type="line"/>
      <point x="752" y="639" type="line"/>
      <point x="752" y="639" type="line"/>
      <point x="860" y="639" type="line"/>
      <point x="860" y="686" type="line"/>
      <point x="822" y="683"/>
      <point x="724" y="683"/>
      <point x="681" y="683" type="curve" smooth="yes"/>
      <point x="638" y="683"/>
      <point x="540" y="683"/>
      <point x="502" y="686" type="curve"/>
      <point x="502" y="639" type="line"/>
      <point x="610" y="639" type="line"/>
      <point x="610" y="639" type="line"/>
      <point x="610" y="380" type="line"/>
      <point x="289" y="380" type="line"/>
      <point x="289" y="639" type="line"/>
      <point x="289" y="639" type="line"/>
      <point x="397" y="639" type="line"/>
      <point x="397" y="686" type="line"/>
      <point x="359" y="683"/>
      <point x="261" y="683"/>
      <point x="218" y="683" type="curve" smooth="yes"/>
      <point x="175" y="683"/>
      <point x="77" y="683"/>
      <point x="39" y="686" type="curve"/>
      <point x="39" y="639" type="line"/>
      <point x="147" y="639" type="line"/>
      <point x="147" y="639" type="line"/>
      <point x="147" y="47" type="line"/>
      <point x="147" y="47" type="line"/>
      <point x="39" y="47" type="line"/>
    </contour>
  </outline>
</glyph>
<glyph name="L" format="2">
  <advance width="691"/>
  <unicode hex="004C"/>
  <outline>
    <contour>
      <point x="643" y="274" type="line"/>
      <point x="596" y="274" type="line"/>
      <point x="588" y="205"/>
      <point x="571" y="47"/>
      <point x="392" y="47" type="curve" smooth="yes"/>
      <point x="289" y="47" type="line"/>
      <point x="289" y="47" type="line"/>
      <point x="289" y="639" type="line"/>
      <point x="289" y="639" type="line"/>
      <point x="424" y="639" type="line"/>
      <point x="424" y="686" type="line"/>
      <point x="380" y="683"/>
      <point x="271" y="683"/>
      <point x="222" y="683" type="curve" smooth="yes"/>
      <point x="178" y="683"/>
      <point x="77" y="683"/>
      <point x="39" y="686" type="curve"/>
      <point x="39" y="639" type="line"/>
      <point x="147" y="639" type="line"/>
      <point x="147" y="639" type="line"/>
      <point x="147" y="47" type="line"/>
      <point x="147" y="47" type="line"/>
      <point x="39" y="47" type="line"/>
      <point x="39" y="0" type="line"/>
      <point x="612" y="0" type="line"/>
    </contour>
  </outline>
</glyph>
<glyph name="P" format="2">
  <advance width="786"/>
  <unicode hex="0050"/>
  <outline>
    <contour>
      <point x="289" y="302" type="line"/>
      <point x="466" y="302" type="line" smooth="yes"/>
      <point x="605" y="302"/>
      <point x="721" y="374"/>
      <point x="721" y="491" type="curve" smooth="yes"/>
      <point x="721" y="601"/>
      <point x="622" y="686"/>
      <point x="456" y="686" type="curve" smooth="yes"/>
      <point x="39" y="686" type="line"/>
      <point x="39" y="639" type="line"/>
      <point x="147" y="639" type="line"/>
      <point x="147" y="639" type="line"/>
      <point x="147" y="47" type="line"/>
      <point x="147" y="47" type="line"/>
      <point x="39" y="47" type="line"/>
      <point x="39" y="0" type="line"/>
      <point x="77" y="3"/>
      <point x="175" y="3"/>
      <point x="218" y="3" type="curve" smooth="yes"/>
      <point x="261" y="3"/>
      <point x="359" y="3"/>
      <point x="397" y="0" type="curve"/>
      <point x="397" y="47" type="line"/>
      <point x="289" y="47" type="line"/>
      <point x="289" y="47" type="line"/>
    </contour>
    <contour>
      <point x="283" y="343" type="line"/>
      <point x="283" y="639" type="line"/>
      <point x="283" y="639" type="line"/>
      <point x="418" y="639" type="line" smooth="yes"/>
      <point x="568" y="639"/>
      <point x="568" y="563"/>
      <point x="568" y="491" type="curve" smooth="yes"/>
      <point x="568" y="420"/>
      <point x="568" y="343"/>
      <point x="417" y="343" type="curve" smooth="yes"/>
    </contour>
  </outline>
</glyph>
<glyph name="Q" format="2">
  <advance width="863"/>
  <unicode hex="0051"/>
  <outline>
    <contour>
      <point x="592" y="18" type="curve"/>
      <point x="756" y="82"/>
      <point x="799" y="230"/>
      <point x="799" y="339" type="curve" smooth="yes"/>
      <point x="799" y="555"/>
      <point x="654" y="697"/>
      <point x="432" y="697" type="curve" smooth="yes"/>
      <point x="203" y="697"/>
      <point x="64" y="549"/>
      <point x="64" y="339" type="curve" smooth="yes"/>
      <point x="64" y="135"/>
      <point x="200" y="-11"/>
      <point x="432" y="-11" type="curve" smooth="yes"/>
      <point x="454" y="-11"/>
      <point x="487" y="-10"/>
      <point x="527" y="-2" type="curve"/>
      <point x="555" y="-115"/>
      <point x="575" y="-194"/>
      <point x="668" y="-194" type="curve" smooth="yes"/>
      <point x="770" y="-194"/>
      <point x="805" y="-76"/>
      <point x="805" y="-8" type="curve" smooth="yes"/>
      <point x="805" y="0"/>
      <point x="805" y="18"/>
      <point x="787" y="18" type="curve" smooth="yes"/>
      <point x="772" y="18"/>
      <point x="770" y="5"/>
      <point x="769" y="-2" type="curve" smooth="yes"/>
      <point x="763" y="-40"/>
      <point x="701" y="-41"/>
      <point x="684" y="-41" type="curve" smooth="yes"/>
      <point x="661" y="-41"/>
      <point x="631" y="-41"/>
    </contour>
    <contour>
      <point x="337" y="51" type="curve"/>
      <point x="214" y="110"/>
      <point x="211" y="262"/>
      <point x="211" y="340" type="curve" smooth="yes"/>
      <point x="211" y="380"/>
      <point x="211" y="475"/>
      <point x="248" y="546" type="curve" smooth="yes"/>
      <point x="300" y="642"/>
      <point x="386" y="657"/>
      <point x="431" y="657" type="curve" smooth="yes"/>
      <point x="485" y="657"/>
      <point x="563" y="637"/>
      <point x="611" y="552" type="curve" smooth="yes"/>
      <point x="649" y="485"/>
      <point x="652" y="399"/>
      <point x="652" y="340" type="curve" smooth="yes"/>
      <point x="652" y="284"/>
      <point x="652" y="135"/>
      <point x="556" y="69" type="curve"/>
      <point x="534" y="102"/>
      <point x="498" y="155"/>
      <point x="431" y="155" type="curve" smooth="yes"/>
      <point x="380" y="155"/>
      <point x="334" y="121"/>
      <point x="334" y="73" type="curve" smooth="yes"/>
      <point x="334" y="67"/>
      <point x="335" y="56"/>
    </contour>
    <contour>
      <point x="514" y="45" type="curve"/>
      <point x="489" y="34"/>
      <point x="459" y="29"/>
      <point x="432" y="29" type="curve" smooth="yes"/>
      <point x="377" y="29"/>
      <point x="370" y="61"/>
      <point x="370" y="73" type="curve" smooth="yes"/>
      <point x="370" y="100"/>
      <point x="399" y="119"/>
      <point x="432" y="119" type="curve" smooth="yes"/>
      <point x="460" y="119"/>
      <point x="494" y="108"/>
    </contour>
  </outline>
</glyph>
<glyph name="T" format="2">
  <advance width="800"/>
  <unicode hex="0054"/>
  <outline>
    <contour>
      <point x="736" y="675" type="line"/>
      <point x="63" y="675" type="line"/>
      <point x="42" y="434" type="line"/>
      <point x="89" y="434" type="line"/>
      <point x="98" y="547"/>
      <point x="108" y="628"/>
      <point x="252" y="628" type="curve" smooth="yes"/>
      <point x="329" y="628" type="line"/>
      <point x="329" y="628" type="line"/>
      <point x="329" y="47" type="line"/>
      <point x="329" y="47" type="line"/>
      <point x="176" y="47" type="line"/>
      <point x="176" y="0" type="line"/>
      <point x="230" y="3"/>
      <point x="341" y="3"/>
      <point x="400" y="3" type="curve" smooth="yes"/>
      <point x="459" y="3"/>
      <point x="570" y="3"/>
      <point x="624" y="0" type="curve"/>
      <point x="624" y="47" type="line"/>
      <point x="471" y="47" type="line"/>
      <point x="471" y="47" type="line"/>
      <point x="471" y="628" type="line"/>
      <point x="471" y="628" type="line"/>
      <point x="547" y="628" type="line" smooth="yes"/>
      <point x="690" y="628"/>
      <point x="700" y="548"/>
      <point x="710" y="434" type="curve"/>
      <point x="757" y="434" type="line"/>
    </contour>
  </outline>
</glyph>
<glyph name="X" format="2">
  <advance width="869"/>
  <unicode hex="0058"/>
  <outline>
    <contour>
      <point x="484" y="397" type="line"/>
      <point x="652" y="618" type="line" smooth="yes"/>
      <point x="671" y="642"/>
      <point x="708" y="639"/>
      <point x="757" y="639" type="curve" smooth="yes"/>
      <point x="786" y="639" type="line"/>
      <point x="786" y="686" type="line"/>
      <point x="744" y="683"/>
      <point x="695" y="683"/>
      <point x="652" y="683" type="curve" smooth="yes"/>
      <point x="613" y="683"/>
      <point x="536" y="683"/>
      <point x="500" y="686" type="curve"/>
      <point x="500" y="639" type="line"/>
      <point x="518" y="639"/>
      <point x="557" y="639"/>
      <point x="592" y="628" type="curve"/>
      <point x="590" y="625"/>
      <point x="586" y="620"/>
      <point x="584" y="617" type="curve" smooth="yes"/>
      <point x="452" y="442" type="line"/>
      <point x="309" y="639" type="line"/>
      <point x="309" y="639" type="line"/>
      <point x="392" y="639" type="line"/>
      <point x="392" y="686" type="line"/>
      <point x="351" y="683"/>
      <point x="256" y="683"/>
      <point x="211" y="683" type="curve" smooth="yes"/>
      <point x="171" y="683"/>
      <point x="84" y="683"/>
      <point x="49" y="686" type="curve"/>
      <point x="49" y="639" type="line"/>
      <point x="147" y="639" type="line"/>
      <point x="147" y="639" type="line"/>
      <point x="369" y="332" type="line"/>
      <point x="167" y="67" type="line" smooth="yes"/>
      <point x="152" y="47"/>
      <point x="115" y="47"/>
      <point x="63" y="47" type="curve" smooth="yes"/>
      <point x="34" y="47" type="line"/>
      <point x="34" y="0" type="line"/>
      <point x="76" y="3"/>
      <point x="125" y="3"/>
      <point x="168" y="3" type="curve" smooth="yes"/>
      <point x="207" y="3"/>
      <point x="284" y="3"/>
      <point x="320" y="0" type="curve"/>
      <point x="320" y="47" type="line"/>
      <point x="302" y="47"/>
      <point x="263" y="47"/>
      <point x="228" y="58" type="curve"/>
      <point x="229" y="60"/>
      <point x="232" y="64"/>
      <point x="236" y="69" type="curve" smooth="yes"/>
      <point x="401" y="288" type="line"/>
      <point x="575" y="47" type="line"/>
      <point x="575" y="47" type="line"/>
      <point x="492" y="47" type="line"/>
      <point x="492" y="0" type="line"/>
      <point x="533" y="3"/>
      <point x="628" y="3"/>
      <point x="673" y="3" type="curve" smooth="yes"/>
      <point x="713" y="3"/>
      <point x="800" y="3"/>
      <point x="835" y="0" type="curve"/>
      <point x="835" y="47" type="line"/>
      <point x="737" y="47" type="line"/>
      <point x="737" y="47" type="line"/>
    </contour>
  </outline>
</glyph>
<glyph name="grave" format="2">
  <advance width="575"/>
  <unicode hex="0060"/>
  <outline>
    <contour>
      <point x="306" y="509" type="line"/>
      <point x="336" y="546" type="line"/>
      <point x="222" y="679" type="line" smooth="yes"/>
      <point x="213" y="690"/>
      <point x="201" y="704"/>
      <point x="177" y="704" type="curve" smooth="yes"/>
      <point x="145" y="704"/>
      <point x="117" y="673"/>
      <point x="117" y="642" type="curve" smooth="yes"/>
      <point x="117" y="609"/>
      <point x="147" y="593"/>
      <point x="149" y="592" type="curve" smooth="yes"/>
    </contour>
  </outline>
</glyph>
<glyph name="c" format="2">
  <advance width="511"/>
  <unicode hex="0063"/>
  <outline>
    <contour>
      <point x="166" y="227" type="curve" smooth="yes"/>
      <point x="166" y="283"/>
      <point x="166" y="413"/>
      <point x="295" y="413" type="curve" smooth="yes"/>
      <point x="330" y="413"/>
      <point x="347" y="410"/>
      <point x="360" y="407" type="curve"/>
      <point x="342" y="391"/>
      <point x="340" y="370"/>
      <point x="340" y="361" type="curve" smooth="yes"/>
      <point x="340" y="317"/>
      <point x="375" y="298"/>
      <point x="402" y="298" type="curve" smooth="yes"/>
      <point x="433" y="298"/>
      <point x="465" y="319"/>
      <point x="465" y="361" type="curve" smooth="yes"/>
      <point x="465" y="447"/>
      <point x="349" y="453"/>
      <point x="291" y="453" type="curve" smooth="yes"/>
      <point x="112" y="453"/>
      <point x="38" y="338"/>
      <point x="38" y="222" type="curve" smooth="yes"/>
      <point x="38" y="89"/>
      <point x="132" y="-6"/>
      <point x="286" y="-6" type="curve" smooth="yes"/>
      <point x="448" y="-6"/>
      <point x="478" y="110"/>
      <point x="478" y="117" type="curve" smooth="yes"/>
      <point x="478" y="131"/>
      <point x="464" y="131"/>
      <point x="454" y="131" type="curve" smooth="yes"/>
      <point x="436" y="131"/>
      <point x="435" y="129"/>
      <point x="430" y="116" type="curve" smooth="yes"/>
      <point x="404" y="53"/>
      <point x="356" y="34"/>
      <point x="305" y="34" type="curve" smooth="yes"/>
      <point x="166" y="34"/>
      <point x="166" y="181"/>
    </contour>
  </outline>
</glyph>
<glyph name="j" format="2">
  <advance width="351"/>
  <unicode hex="006A"/>
  <outline>
    <contour>
      <point x="159" y="355" type="curve" smooth="yes"/>
      <point x="159" y="-42" type="line" smooth="yes"/>
      <point x="159" y="-92"/>
      <point x="144" y="-164"/>
      <point x="84" y="-164" type="curve" smooth="yes"/>
      <point x="68" y="-164"/>
      <point x="60" y="-162"/>
      <point x="45" y="-158" type="curve"/>
      <point x="64" y="-144"/>
      <point x="69" y="-123"/>
      <point x="69" y="-108" type="curve" smooth="yes"/>
      <point x="69" y="-73"/>
      <point x="43" y="-46"/>
      <point x="7" y="-46" type="curve" smooth="yes"/>
      <point x="-31" y="-46"/>
      <point x="-56" y="-73"/>
      <point x="-56" y="-109" type="curve" smooth="yes"/>
      <point x="-56" y="-166"/>
      <point x="4" y="-200"/>
      <point x="86" y="-200" type="curve" smooth="yes"/>
      <point x="172" y="-200"/>
      <point x="267" y="-148"/>
      <point x="267" y="-42" type="curve" smooth="yes"/>
      <point x="267" y="450" type="line"/>
      <point x="83" y="442" type="line"/>
      <point x="83" y="395" type="line"/>
      <point x="158" y="395"/>
      <point x="159.0" y="390.2119"/>
    </contour>
    <contour>
      <point x="267" y="617" type="curve" smooth="yes"/>
      <point x="267" y="660"/>
      <point x="232" y="695"/>
      <point x="189" y="695" type="curve" smooth="yes"/>
      <point x="146" y="695"/>
      <point x="111" y="660"/>
      <point x="111" y="617" type="curve" smooth="yes"/>
      <point x="111" y="574"/>
      <point x="146" y="539"/>
      <point x="189" y="539" type="curve" smooth="yes"/>
      <point x="232" y="539"/>
      <point x="267" y="574"/>
    </contour>
  </outline>
</glyph>
<glyph name="l" format="2">
  <advance width="319"/>
  <unicode hex="006C"/>
  <outline>
    <contour>
      <point x="224" y="694" type="line"/>
      <point x="47" y="686" type="line"/>
      <point x="47" y="639" type="line"/>
      <point x="109" y="639"/>
      <point x="116" y="639"/>
      <point x="116" y="600" type="curve" smooth="yes"/>
      <point x="116" y="47" type="line"/>
      <point x="47" y="47" type="line"/>
      <point x="47" y="47" type="line"/>
      <point x="47" y="0" type="line"/>
      <point x="79" y="1"/>
      <point x="127" y="3"/>
      <point x="170" y="3" type="curve" smooth="yes"/>
      <point x="213" y="3"/>
      <point x="259" y="1"/>
      <point x="293" y="0" type="curve"/>
      <point x="293" y="47" type="line"/>
      <point x="293" y="47" type="line"/>
      <point x="224" y="47" type="line"/>
    </contour>
  </outline>
</glyph>
<glyph name="n" format="2">
  <advance width="638"/>
  <unicode hex="006E"/>
  <outline>
    <contour>
      <point x="114" y="47" type="line"/>
      <point x="45" y="47" type="line"/>
      <point x="45" y="47" type="line"/>
      <point x="45" y="0" type="line"/>
      <point x="73" y="1"/>
      <point x="133" y="3"/>
      <point x="171" y="3" type="curve" smooth="yes"/>
      <point x="210" y="3"/>
      <point x="269" y="1"/>
      <point x="297" y="0" type="curve"/>
      <point x="297" y="47" type="line"/>
      <point x="297" y="47" type="line"/>
      <point x="228" y="47" type="line"/>
      <point x="228" y="256" type="line" smooth="yes"/>
      <point x="228" y="365"/>
      <point x="314" y="414"/>
      <point x="377" y="414" type="curve" smooth="yes"/>
      <point x="411" y="414"/>
      <point x="432" y="393"/>
      <point x="432" y="317" type="curve" smooth="yes"/>
      <point x="432" y="47" type="line"/>
      <point x="363" y="47" type="line"/>
      <point x="363" y="47" type="line"/>
      <point x="363" y="0" type="line"/>
      <point x="391" y="1"/>
      <point x="451" y="3"/>
      <point x="489" y="3" type="curve" smooth="yes"/>
      <point x="528" y="3"/>
      <point x="587" y="1"/>
      <point x="615" y="0" type="curve"/>
      <point x="615" y="47" type="line"/>
      <point x="615" y="47" type="line"/>
      <point x="546" y="47" type="line"/>
      <point x="546" y="306" type="line" smooth="yes"/>
      <point x="546" y="355"/>
      <point x="534" y="390"/>
      <point x="511" y="413" type="curve" smooth="yes"/>
      <point x="485" y="439"/>
      <point x="445" y="450"/>
      <point x="392" y="450" type="curve" smooth="yes"/>
      <point x="296" y="450"/>
      <point x="243" y="393"/>
      <point x="217" y="342" type="curve"/>
      <point x="217" y="342" type="line"/>
      <point x="217" y="450" type="line"/>
      <point x="45" y="442" type="line"/>
      <point x="45" y="395" type="line"/>
      <point x="107" y="395"/>
      <point x="114" y="395"/>
      <point x="114" y="356" type="curve" smooth="yes"/>
    </contour>
  </outline>
</glyph>
<glyph name="p" format="2">
  <advance width="638"/>
  <unicode hex="0070"/>
  <outline>
    <contour>
      <point x="37" y="395" type="line"/>
      <point x="37" y="395" type="line"/>
      <point x="99" y="395"/>
      <point x="106" y="395"/>
      <point x="106" y="357" type="curve" smooth="yes"/>
      <point x="106" y="-147" type="line"/>
      <point x="37" y="-147" type="line"/>
      <point x="37" y="-147" type="line"/>
      <point x="37" y="-194" type="line"/>
      <point x="65" y="-193"/>
      <point x="125" y="-191"/>
      <point x="163" y="-191" type="curve" smooth="yes"/>
      <point x="202" y="-191"/>
      <point x="261" y="-193"/>
      <point x="289" y="-194" type="curve"/>
      <point x="289" y="-147" type="line"/>
      <point x="220" y="-147" type="line"/>
      <point x="220" y="39" type="line"/>
      <point x="263" y="4"/>
      <point x="307" y="-6"/>
      <point x="348" y="-6" type="curve" smooth="yes"/>
      <point x="498" y="-6"/>
      <point x="600" y="84"/>
      <point x="600" y="223" type="curve" smooth="yes"/>
      <point x="600" y="356"/>
      <point x="509" y="450"/>
      <point x="365" y="450" type="curve" smooth="yes"/>
      <point x="290" y="450"/>
      <point x="237" y="419"/>
      <point x="214" y="401" type="curve"/>
      <point x="214" y="450" type="line"/>
      <point x="37" y="442" type="line"/>
    </contour>
    <contour>
      <point x="472" y="223" type="curve" smooth="yes"/>
      <point x="472" y="82"/>
      <point x="402" y="30"/>
      <point x="337" y="30" type="curve" smooth="yes"/>
      <point x="323" y="30"/>
      <point x="276" y="30"/>
      <point x="231" y="84" type="curve" smooth="yes"/>
      <point x="220" y="97"/>
      <point x="220" y="98"/>
      <point x="220" y="117" type="curve" smooth="yes"/>
      <point x="220" y="329" type="line" smooth="yes"/>
      <point x="220" y="348"/>
      <point x="221" y="349"/>
      <point x="235" y="363" type="curve" smooth="yes"/>
      <point x="275" y="404"/>
      <point x="327" y="410"/>
      <point x="349" y="410" type="curve" smooth="yes"/>
      <point x="416" y="410"/>
      <point x="472" y="349"/>
    </contour>
  </outline>
</glyph>
<glyph name="x" format="2">
  <advance width="606"/>
  <unicode hex="0078"/>
  <outline>
    <contour>
      <point x="254" y="213" type="line"/>
      <point x="123" y="66" type="line" smooth="yes"/>
      <point x="106" y="47"/>
      <point x="70" y="47"/>
      <point x="22" y="47" type="curve"/>
      <point x="22" y="0" type="line"/>
      <point x="57" y="2"/>
      <point x="109" y="3"/>
      <point x="114" y="3" type="curve" smooth="yes"/>
      <point x="139" y="3"/>
      <point x="197" y="1"/>
      <point x="217" y="0" type="curve"/>
      <point x="217" y="47" type="line"/>
      <point x="199" y="47"/>
      <point x="180" y="52"/>
      <point x="180" y="58" type="curve" smooth="yes"/>
      <point x="180" y="59"/>
      <point x="180" y="60"/>
      <point x="187" y="68" type="curve" smooth="yes"/>
      <point x="284" y="177" type="line"/>
      <point x="394" y="47" type="line"/>
      <point x="394" y="47" type="line"/>
      <point x="355" y="47" type="line"/>
      <point x="355" y="0" type="line"/>
      <point x="381" y="1"/>
      <point x="442" y="3"/>
      <point x="475" y="3" type="curve" smooth="yes"/>
      <point x="507" y="3"/>
      <point x="552" y="1"/>
      <point x="585" y="0" type="curve"/>
      <point x="585" y="47" type="line"/>
      <point x="514" y="47" type="line"/>
      <point x="346" y="246" type="line"/>
      <point x="463" y="376" type="line" smooth="yes"/>
      <point x="476" y="390"/>
      <point x="482" y="397"/>
      <point x="565" y="397" type="curve"/>
      <point x="565" y="444" type="line"/>
      <point x="530" y="442"/>
      <point x="478" y="441"/>
      <point x="473" y="441" type="curve" smooth="yes"/>
      <point x="448" y="441"/>
      <point x="398" y="443"/>
      <point x="370" y="444" type="curve"/>
      <point x="370" y="397" type="line"/>
      <point x="384" y="397"/>
      <point x="396" y="395"/>
      <point x="408" y="388" type="curve"/>
      <point x="407" y="386"/>
      <point x="404" y="381"/>
      <point x="400" y="376" type="curve" smooth="yes"/>
      <point x="316" y="282" type="line"/>
      <point x="218" y="397" type="line"/>
      <point x="218" y="397" type="line"/>
      <point x="258" y="397" type="line"/>
      <point x="258" y="444" type="line"/>
      <point x="232" y="443"/>
      <point x="169" y="441"/>
      <point x="137" y="441" type="curve" smooth="yes"/>
      <point x="105" y="441"/>
      <point x="60" y="443"/>
      <point x="27" y="444" type="curve"/>
      <point x="27" y="397" type="line"/>
      <point x="98" y="397" type="line"/>
    </contour>
  </outline>
</glyph>
<glyph name="z" format="2">
  <advance width="511"/>
  <unicode hex="007A"/>
  <outline>
    <contour>
      <point x="320" y="408" type="line"/>
      <point x="41" y="44" type="line" smooth="yes"/>
      <point x="32" y="33"/>
      <point x="32" y="31"/>
      <point x="32" y="22" type="curve" smooth="yes"/>
      <point x="32" y="0"/>
      <point x="45" y="0"/>
      <point x="64" y="0" type="curve" smooth="yes"/>
      <point x="444" y="0" type="line"/>
      <point x="462" y="202" type="line"/>
      <point x="415" y="202" type="line"/>
      <point x="406" y="101"/>
      <point x="390" y="40"/>
      <point x="258" y="40" type="curve" smooth="yes"/>
      <point x="172" y="40" type="line"/>
      <point x="449" y="401" type="line" smooth="yes"/>
      <point x="457" y="412"/>
      <point x="459" y="414"/>
      <point x="459" y="423" type="curve" smooth="yes"/>
      <point x="459" y="444"/>
      <point x="445" y="444"/>
      <point x="427" y="444" type="curve" smooth="yes"/>
      <point x="60" y="444" type="line"/>
      <point x="48" y="269" type="line"/>
      <point x="95" y="269" type="line"/>
      <point x="101" y="372"/>
      <point x="132" y="408"/>
      <point x="235" y="408" type="curve" smooth="yes"/>
    </contour>
  </outline>
</glyph>
<glyph name="exclamdown" format="2">
  <advance width="350"/>
  <unicode hex="00A1"/>
  <outline>
    <contour>
      <point x="252" y="-116" type="curve"/>
      <point x="200" y="252" type="line" smooth="yes"/>
      <point x="197" y="271"/>
      <point x="194" y="274"/>
      <point x="175" y="274" type="curve" smooth="yes"/>
      <point x="154" y="274"/>
      <point x="153" y="271"/>
      <point x="150" y="249" type="curve" smooth="yes"/>
      <point x="98" y="-121" type="line"/>
      <point x="98" y="-123"/>
      <point x="96" y="-132"/>
      <point x="96" y="-134" type="curve" smooth="yes"/>
      <point x="96" y="-173"/>
      <point x="132" y="-205"/>
      <point x="175" y="-205" type="curve" smooth="yes"/>
      <point x="218" y="-205"/>
      <point x="254" y="-173"/>
      <point x="254" y="-134" type="curve" smooth="yes"/>
      <point x="254" y="-128"/>
      <point x="254" y="-126"/>
    </contour>
    <contour>
      <point x="253" y="422" type="curve" smooth="yes"/>
      <point x="253" y="465"/>
      <point x="218" y="500"/>
      <point x="175" y="500" type="curve" smooth="yes"/>
      <point x="132" y="500"/>
      <point x="97" y="465"/>
      <point x="97" y="422" type="curve" smooth="yes"/>
      <point x="97" y="379"/>
      <point x="132" y="344"/>
      <point x="175" y="344" type="curve" smooth="yes"/>
      <point x="218" y="344"/>
      <point x="253" y="379"/>
    </contour>
  </outline>
</glyph>
<glyph name="dotlessi" format="2">
  <advance width="319"/>
  <unicode hex="0131"/>
  <outline>
    <contour>
      <point x="224" y="450" type="line"/>
      <point x="50" y="442" type="line"/>
      <point x="50" y="395" type="line"/>
      <point x="109" y="395"/>
      <point x="116" y="395"/>
      <point x="116" y="356" type="curve" smooth="yes"/>
      <point x="116" y="47" type="line"/>
      <point x="47" y="47" type="line"/>
      <point x="47" y="0" type="line"/>
      <point x="78" y="1"/>
      <point x="127" y="3"/>
      <point x="169" y="3" type="curve" smooth="yes"/>
      <point x="199" y="3"/>
      <point x="250" y="1"/>
      <point x="286" y="0" type="curve"/>
      <point x="286" y="47" type="line"/>
      <point x="224" y="47" type="line"/>
    </contour>
  </outline>
</glyph>
<glyph name="quotedblright" format="2">
  <advance width="602"/>
  <unicode hex="201D"/>
  <outline>
    <contour>
      <point x="174" y="561" type="curve"/>
      <point x="168" y="449"/>
      <point x="98" y="394"/>
      <point x="76" y="377" type="curve" smooth="yes"/>
      <point x="72" y="374"/>
      <point x="68" y="371"/>
      <point x="68" y="364" type="curve" smooth="yes"/>
      <point x="68" y="354"/>
      <point x="79" y="344"/>
      <point x="87" y="344" type="curve" smooth="yes"/>
      <point x="101" y="344"/>
      <point x="210" y="429"/>
      <point x="210" y="569" type="curve" smooth="yes"/>
      <point x="210" y="638"/>
      <point x="173" y="694"/>
      <point x="115" y="694" type="curve" smooth="yes"/>
      <point x="69" y="694"/>
      <point x="38" y="659"/>
      <point x="38" y="616" type="curve" smooth="yes"/>
      <point x="38" y="576"/>
      <point x="65" y="538"/>
      <point x="116" y="538" type="curve" smooth="yes"/>
      <point x="138" y="538"/>
      <point x="158" y="546"/>
    </contour>
    <contour>
      <point x="426" y="561" type="curve"/>
      <point x="420" y="449"/>
      <point x="350" y="394"/>
      <point x="328" y="377" type="curve" smooth="yes"/>
      <point x="324" y="374"/>
      <point x="320" y="371"/>
      <point x="320" y="364" type="curve" smooth="yes"/>
      <point x="320" y="354"/>
      <point x="331" y="344"/>
      <point x="339" y="344" type="curve" smooth="yes"/>
      <point x="353" y="344"/>
      <point x="462" y="429"/>
      <point x="462" y="569" type="curve" smooth="yes"/>
      <point x="462" y="638"/>
      <point x="425" y="694"/>
      <point x="367" y="694" type="curve" smooth="yes"/>
      <point x="321" y="694"/>
      <point x="290" y="659"/>
      <point x="290" y="616" type="curve" smooth="yes"/>
      <point x="290" y="576"/>
      <point x="317" y="538"/>
      <point x="368" y="538" type="curve" smooth="yes"/>
      <point x="390" y="538"/>
      <point x="410" y="546"/>
    </contour>
  </outline>
</glyph>
